<svg id="visual" viewBox="0 0 960 540" width="960" height="540" xmlns="http://www.w3.org/2000/svg" xmlns:xlink="http://www.w3.org/1999/xlink" version="1.1"><rect x="0" y="0" width="960" height="540" fill="#140021"></rect><path d="M514 0L381 0L381 27L452 27L452 54L642 54L642 81L606 81L606 108L576 108L576 135L456 135L456 162L353 162L353 189L642 189L642 216L405 216L405 243L510 243L510 270L506 270L506 297L525 297L525 324L548 324L548 351L361 351L361 378L626 378L626 405L434 405L434 432L461 432L461 459L553 459L553 486L422 486L422 513L607 513L607 540L0 540L0 513L0 513L0 486L0 486L0 459L0 459L0 432L0 432L0 405L0 405L0 378L0 378L0 351L0 351L0 324L0 324L0 297L0 297L0 270L0 270L0 243L0 243L0 216L0 216L0 189L0 189L0 162L0 162L0 135L0 135L0 108L0 108L0 81L0 81L0 54L0 54L0 27L0 27L0 0L0 0Z" fill="#1c012f"></path><path d="M333 0L341 0L341 27L311 27L311 54L469 54L469 81L593 81L593 108L354 108L354 135L557 135L557 162L341 162L341 189L496 189L496 216L588 216L588 243L431 243L431 270L476 270L476 297L536 297L536 324L314 324L314 351L567 351L567 378L507 378L507 405L412 405L412 432L352 432L352 459L408 459L408 486L431 486L431 513L322 513L322 540L0 540L0 513L0 513L0 486L0 486L0 459L0 459L0 432L0 432L0 405L0 405L0 378L0 378L0 351L0 351L0 324L0 324L0 297L0 297L0 270L0 270L0 243L0 243L0 216L0 216L0 189L0 189L0 162L0 162L0 135L0 135L0 108L0 108L0 81L0 81L0 54L0 54L0 27L0 27L0 0L0 0Z" fill="#270743"></path><path d="M462 0L426 0L426 27L328 27L328 54L294 54L294 81L428 81L428 108L508 108L508 135L436 135L436 162L423 162L423 189L461 189L461 216L474 216L474 243L398 243L398 270L407 270L407 297L513 297L513 324L463 324L463 351L473 351L473 378L372 378L372 405L368 405L368 432L343 432L343 459L281 459L281 486L276 486L276 513L440 513L440 540L0 540L0 513L0 513L0 486L0 486L0 459L0 459L0 432L0 432L0 405L0 405L0 378L0 378L0 351L0 351L0 324L0 324L0 297L0 297L0 270L0 270L0 243L0 243L0 216L0 216L0 189L0 189L0 162L0 162L0 135L0 135L0 108L0 108L0 81L0 81L0 54L0 54L0 27L0 27L0 0L0 0Z" fill="#330858"></path><path d="M334 0L458 0L458 27L273 27L273 54L278 54L278 81L345 81L345 108L441 108L441 135L251 135L251 162L299 162L299 189L257 189L257 216L235 216L235 243L365 243L365 270L237 270L237 297L259 297L259 324L433 324L433 351L320 351L320 378L294 378L294 405L246 405L246 432L301 432L301 459L444 459L444 486L400 486L400 513L300 513L300 540L0 540L0 513L0 513L0 486L0 486L0 459L0 459L0 432L0 432L0 405L0 405L0 378L0 378L0 351L0 351L0 324L0 324L0 297L0 297L0 270L0 270L0 243L0 243L0 216L0 216L0 189L0 189L0 162L0 162L0 135L0 135L0 108L0 108L0 81L0 81L0 54L0 54L0 27L0 27L0 0L0 0Z" fill="#400a6e"></path><path d="M234 0L378 0L378 27L409 27L409 54L402 54L402 81L234 81L234 108L383 108L383 135L230 135L230 162L348 162L348 189L390 189L390 216L394 216L394 243L286 243L286 270L321 270L321 297L201 297L201 324L253 324L253 351L372 351L372 378L405 378L405 405L379 405L379 432L406 432L406 459L328 459L328 486L352 486L352 513L326 513L326 540L0 540L0 513L0 513L0 486L0 486L0 459L0 459L0 432L0 432L0 405L0 405L0 378L0 378L0 351L0 351L0 324L0 324L0 297L0 297L0 270L0 270L0 243L0 243L0 216L0 216L0 189L0 189L0 162L0 162L0 135L0 135L0 108L0 108L0 81L0 81L0 54L0 54L0 27L0 27L0 0L0 0Z" fill="#4e0b84"></path><path d="M183 0L237 0L237 27L308 27L308 54L186 54L186 81L229 81L229 108L228 108L228 135L350 135L350 162L197 162L197 189L204 189L204 216L276 216L276 243L178 243L178 270L257 270L257 297L201 297L201 324L299 324L299 351L283 351L283 378L342 378L342 405L347 405L347 432L331 432L331 459L306 459L306 486L317 486L317 513L170 513L170 540L0 540L0 513L0 513L0 486L0 486L0 459L0 459L0 432L0 432L0 405L0 405L0 378L0 378L0 351L0 351L0 324L0 324L0 297L0 297L0 270L0 270L0 243L0 243L0 216L0 216L0 189L0 189L0 162L0 162L0 135L0 135L0 108L0 108L0 81L0 81L0 54L0 54L0 27L0 27L0 0L0 0Z" fill="#5c0b9c"></path><path d="M186 0L191 0L191 27L153 27L153 54L227 54L227 81L282 81L282 108L224 108L224 135L268 135L268 162L215 162L215 189L189 189L189 216L209 216L209 243L234 243L234 270L247 270L247 297L297 297L297 324L261 324L261 351L168 351L168 378L254 378L254 405L287 405L287 432L216 432L216 459L135 459L135 486L253 486L253 513L253 513L253 540L0 540L0 513L0 513L0 486L0 486L0 459L0 459L0 432L0 432L0 405L0 405L0 378L0 378L0 351L0 351L0 324L0 324L0 297L0 297L0 270L0 270L0 243L0 243L0 216L0 216L0 189L0 189L0 162L0 162L0 135L0 135L0 108L0 108L0 81L0 81L0 54L0 54L0 27L0 27L0 0L0 0Z" fill="#6b0ab4"></path><path d="M234 0L199 0L199 27L233 27L233 54L132 54L132 81L182 81L182 108L234 108L234 135L84 135L84 162L93 162L93 189L131 189L131 216L174 216L174 243L232 243L232 270L223 270L223 297L135 297L135 324L225 324L225 351L84 351L84 378L185 378L185 405L190 405L190 432L149 432L149 459L154 459L154 486L216 486L216 513L200 513L200 540L0 540L0 513L0 513L0 486L0 486L0 459L0 459L0 432L0 432L0 405L0 405L0 378L0 378L0 351L0 351L0 324L0 324L0 297L0 297L0 270L0 270L0 243L0 243L0 216L0 216L0 189L0 189L0 162L0 162L0 135L0 135L0 108L0 108L0 81L0 81L0 54L0 54L0 27L0 27L0 0L0 0Z" fill="#7a08cc"></path><path d="M172 0L59 0L59 27L71 27L71 54L172 54L172 81L48 81L48 108L49 108L49 135L94 135L94 162L160 162L160 189L164 189L164 216L138 216L138 243L93 243L93 270L63 270L63 297L57 297L57 324L82 324L82 351L160 351L160 378L165 378L165 405L61 405L61 432L114 432L114 459L147 459L147 486L62 486L62 513L86 513L86 540L0 540L0 513L0 513L0 486L0 486L0 459L0 459L0 432L0 432L0 405L0 405L0 378L0 378L0 351L0 351L0 324L0 324L0 297L0 297L0 270L0 270L0 243L0 243L0 216L0 216L0 189L0 189L0 162L0 162L0 135L0 135L0 108L0 108L0 81L0 81L0 54L0 54L0 27L0 27L0 0L0 0Z" fill="#8905e5"></path><path d="M68 0L35 0L35 27L14 27L14 54L100 54L100 81L41 81L41 108L116 108L116 135L79 135L79 162L21 162L21 189L104 189L104 216L41 216L41 243L58 243L58 270L40 270L40 297L9 297L9 324L46 324L46 351L115 351L115 378L52 378L52 405L94 405L94 432L16 432L16 459L71 459L71 486L100 486L100 513L29 513L29 540L0 540L0 513L0 513L0 486L0 486L0 459L0 459L0 432L0 432L0 405L0 405L0 378L0 378L0 351L0 351L0 324L0 324L0 297L0 297L0 270L0 270L0 243L0 243L0 216L0 216L0 189L0 189L0 162L0 162L0 135L0 135L0 108L0 108L0 81L0 81L0 54L0 54L0 27L0 27L0 0L0 0Z" fill="#9900ff"></path></svg>